<svg width="42" height="42" viewBox="0 0 42 42" fill="none" xmlns="http://www.w3.org/2000/svg">
<path d="M6.4541 8.53125L9.10174 38.2243L20.9818 41.5219L32.8951 38.22L35.5457 8.53125H6.4541ZM29.1636 25.0976L28.3925 32.2809L28.3955 32.8962L20.9999 34.9617V34.962L20.994 34.967L13.5393 32.9244L13.035 27.2344H16.6906L16.9498 30.1107L21.0012 31.1919L20.9999 31.1968V31.1863L25.0667 30.0395L25.4959 25.2656H16.9951L16.9223 24.4929L16.7562 22.64L16.6693 21.6562H25.8194L26.1521 18.0469H12.2156L12.1425 17.1974L11.9764 15.2188L11.8895 14.1094H30.1323L30.0446 15.2033L29.1636 25.0976ZM29.203 4.71647L26.8572 1.96875H29.203V0.328125H23.953V1.75973L26.706 4.26562H23.953V5.90625H29.203V4.71647ZM22.9686 4.71647L20.7351 1.96875H22.9686V0.328125H18.0468V1.75973L20.5841 4.26562H18.0468V5.90625H22.9686V4.71647ZM17.0624 4.26562H14.4374V1.96875H17.0624V0.328125H12.4686V5.90625H17.0624V4.26562Z" fill="#1572B6"/>
</svg>
