<svg width="42" height="42" viewBox="0 0 42 42" fill="none" xmlns="http://www.w3.org/2000/svg">
<path fill-rule="evenodd" clip-rule="evenodd" d="M3.23071 34.125C3.23071 35 3.55379 35.875 4.36148 37.275C5.33071 38.675 6.78456 39.55 8.07687 38.15C8.72302 37.275 17.123 21.35 21.323 15.4C21.8076 14.7 22.7769 14.7 23.2615 15.4C27.2999 21.35 35.6999 37.275 36.5076 38.15C37.6384 39.55 39.2538 38.675 40.0615 37.275C41.0307 35.7 41.1923 34.825 41.1923 33.775C41.1923 32.9 28.2692 6.65 26.8153 4.375C25.523 2.275 25.1999 1.75 23.0999 1.75H21.4846C19.223 1.75 18.8999 2.275 17.6076 4.375C16.3153 6.475 3.71533 31.85 3.23071 33.6V34.125Z" fill="white"/>
</svg>
