<svg width="42" height="42" viewBox="0 0 42 42" fill="none" xmlns="http://www.w3.org/2000/svg">
<path d="M41.6719 32.1562C40.0312 32.8125 39.0469 32.1562 38.3906 31.1719L32.4844 22.9688L31.5 21.6562L24.6094 31.1719C23.9531 32.1562 22.9688 32.8125 21.6562 32.1562L30.5156 20.3438L22.3125 9.84375C23.625 9.51562 24.6094 9.51562 25.5938 10.8281C27.2344 13.7812 29.5312 16.4062 31.5 19.0312L37.7344 10.8281C38.3906 9.84375 39.375 9.51562 40.6875 9.84375L37.7344 14.1094L33.1406 19.6875C32.8125 20.3438 32.8125 20.6719 33.4688 21.3281L41.6719 32.1562ZM0.328125 20.3438L1.3125 16.7344C3.28125 9.51562 11.1562 6.89062 16.7344 11.1562C20.0156 13.7812 20.6719 17.3906 20.6719 21.3281H2.29688C1.96875 28.5469 7.21875 33.1406 14.1094 30.8437C16.4062 29.8594 17.7188 28.2188 18.375 25.9219C18.7031 24.6094 19.3594 24.6094 20.3438 24.9375C20.0156 27.5625 18.7031 30.1875 16.0781 31.5C12.1406 33.7969 6.5625 33.1406 3.60938 29.8594C1.64062 28.2188 0.984375 25.9219 0.65625 23.2969L0.328125 22.3125V20.3438ZM2.29688 19.6875H19.0312C18.7031 14.4375 15.4219 10.8281 11.1562 10.8281C6.23438 10.8281 2.625 14.4375 2.29688 19.6875Z" fill="white"/>
</svg>
