<svg width="19" height="28" viewBox="0 0 19 28" fill="none" xmlns="http://www.w3.org/2000/svg">
<g clip-path="url(#clip0_10_140)">
<path d="M4.751 28C7.37248 28 9.50005 25.9093 9.50005 23.3333V18.6667H4.751C2.12953 18.6667 0.00195312 20.7573 0.00195312 23.3333C0.00195312 25.9093 2.12953 28 4.751 28Z" fill="#0ACF83"/>
<path d="M0.00195312 14C0.00195312 11.424 2.12953 9.33334 4.751 9.33334H9.50005V18.6667H4.751C2.12953 18.6667 0.00195312 16.576 0.00195312 14Z" fill="#A259FF"/>
<path d="M0.00195312 4.6667C0.00195312 2.0907 2.12953 3.05176e-05 4.751 3.05176e-05H9.50005V9.33336H4.751C2.12953 9.33336 0.00195312 7.2427 0.00195312 4.6667Z" fill="#F24E1E"/>
<path d="M9.5 3.05176e-05H14.249C16.8705 3.05176e-05 18.9981 2.0907 18.9981 4.6667C18.9981 7.2427 16.8705 9.33336 14.249 9.33336H9.5V3.05176e-05Z" fill="#FF7262"/>
<path d="M18.9981 14C18.9981 16.576 16.8705 18.6667 14.249 18.6667C11.6276 18.6667 9.5 16.576 9.5 14C9.5 11.424 11.6276 9.33334 14.249 9.33334C16.8705 9.33334 18.9981 11.424 18.9981 14Z" fill="#1ABCFE"/>
</g>
<defs>
<clipPath id="clip0_10_140">
<rect width="19" height="28" fill="white"/>
</clipPath>
</defs>
</svg>
