<svg width="42" height="42" viewBox="0 0 42 42" fill="none" xmlns="http://www.w3.org/2000/svg">
<path d="M14.048 31.943C14.048 32.107 13.8532 32.2383 13.6077 32.2383C13.3282 32.2629 13.1335 32.1316 13.1335 31.943C13.1335 31.7789 13.3282 31.6477 13.5738 31.6477C13.8278 31.623 14.048 31.7543 14.048 31.943ZM11.4145 31.5738C11.3552 31.7379 11.5246 31.9266 11.7786 31.9758C11.9988 32.0578 12.2528 31.9758 12.3036 31.8117C12.3544 31.6477 12.1935 31.459 11.9395 31.3852C11.7194 31.3277 11.4738 31.4098 11.4145 31.5738ZM15.1573 31.4344C14.9117 31.4918 14.7423 31.6477 14.7677 31.8363C14.7931 32.0004 15.0133 32.107 15.2673 32.0496C15.5129 31.9922 15.6823 31.8363 15.6569 31.6723C15.6315 31.5164 15.4028 31.4098 15.1573 31.4344ZM20.729 0C8.98427 0 0 8.63789 0 20.0156C0 29.1129 5.91048 36.8977 14.3528 39.6375C15.4367 39.8262 15.8177 39.1781 15.8177 38.6449C15.8177 38.1363 15.7923 35.3309 15.7923 33.6082C15.7923 33.6082 9.86492 34.8387 8.62016 31.1637C8.62016 31.1637 7.65484 28.7766 6.26613 28.1613C6.26613 28.1613 4.32702 26.8734 6.40161 26.898C6.40161 26.898 8.51008 27.0621 9.67016 29.0145C11.5246 32.1809 14.6323 31.2703 15.8431 30.7289C16.0379 29.4164 16.5883 28.5059 17.198 27.9645C12.4645 27.4559 7.68871 26.7914 7.68871 18.9C7.68871 16.6441 8.33226 15.5121 9.6871 14.0684C9.46694 13.5352 8.74718 11.3367 9.90726 8.49844C11.677 7.96523 15.75 10.7133 15.75 10.7133C17.4435 10.2539 19.2641 10.016 21.0677 10.016C22.8714 10.016 24.6919 10.2539 26.3855 10.7133C26.3855 10.7133 30.4585 7.95703 32.2282 8.49844C33.3883 11.3449 32.6685 13.5352 32.4484 14.0684C33.8032 15.5203 34.6331 16.6523 34.6331 18.9C34.6331 26.816 29.6456 27.4477 24.9121 27.9645C25.6911 28.6125 26.3516 29.843 26.3516 31.7707C26.3516 34.5352 26.3262 37.9559 26.3262 38.6285C26.3262 39.1617 26.7157 39.8098 27.7911 39.6211C36.2589 36.8977 42 29.1129 42 20.0156C42 8.63789 32.4738 0 20.729 0ZM8.23065 28.2926C8.12056 28.3746 8.14597 28.5633 8.28992 28.7191C8.4254 28.8504 8.62016 28.9078 8.73024 28.8012C8.84032 28.7191 8.81492 28.5305 8.67097 28.3746C8.53548 28.2434 8.34073 28.1859 8.23065 28.2926ZM7.31613 27.6281C7.25686 27.7348 7.34153 27.866 7.51089 27.948C7.64637 28.0301 7.81573 28.0055 7.875 27.8906C7.93427 27.784 7.8496 27.6527 7.68024 27.5707C7.51089 27.5215 7.3754 27.5461 7.31613 27.6281ZM10.0597 30.5484C9.92419 30.6551 9.975 30.9012 10.1698 31.057C10.3645 31.2457 10.6101 31.2703 10.7202 31.1391C10.8302 31.0324 10.7794 30.7863 10.6101 30.6305C10.4238 30.4418 10.1698 30.4172 10.0597 30.5484ZM9.09435 29.3426C8.95887 29.4246 8.95887 29.6379 9.09435 29.8266C9.22984 30.0152 9.45847 30.0973 9.56855 30.0152C9.70403 29.9086 9.70403 29.6953 9.56855 29.5066C9.45 29.318 9.22984 29.2359 9.09435 29.3426Z" fill="white"/>
</svg>
