<svg width="42" height="42" viewBox="0 0 42 42" fill="none" xmlns="http://www.w3.org/2000/svg">
<path d="M26.4469 13.2233H26.5782L26.5126 13.1577L31.1063 8.56396V8.46552C27.2344 5.05302 21.886 3.87177 16.9313 5.34833C11.9766 6.82489 8.17036 10.7624 6.79224 15.7499C6.85786 15.7171 6.9563 15.6843 7.05474 15.6843C8.76099 14.5686 10.7954 13.9124 12.9282 13.9124C13.65 13.9124 14.3391 13.978 15.0282 14.1093C15.061 14.0765 15.0938 14.0765 15.1266 14.0765C18.0797 10.828 23.0672 10.4343 26.4797 13.2233H26.4469Z" fill="#EA4535"/>
<path d="M35.4703 15.6844C34.7156 12.8954 33.1406 10.3688 30.9421 8.43286L26.25 13.0922C28.2187 14.7 29.3671 17.1282 29.3015 19.6547V20.475C34.8468 20.475 34.8468 28.7438 29.3015 28.7438H20.9671V35.3063H20.9343L20.9671 35.3719H29.3015C34.0921 35.4047 38.3249 32.3204 39.7359 27.7922C41.1468 23.2641 39.4078 18.3422 35.4703 15.6844Z" fill="#557EBF"/>
<path d="M12.797 35.4046H21.4267V28.7765H12.797C12.1735 28.7765 11.5829 28.6452 11.0251 28.4155L6.0376 33.2062V33.2718C8.00635 34.6827 10.3688 35.4374 12.8298 35.4374L12.797 35.4046Z" fill="#36A852"/>
<path d="M13.1905 13.7485C8.30146 13.7813 3.97021 16.8001 2.39521 21.2298C0.820209 25.6923 2.39521 30.5813 6.26708 33.4688L11.3858 28.5798C8.56396 27.3657 7.90771 23.822 10.0733 21.7548C12.239 19.6548 15.914 20.311 17.1936 23.0017L22.3124 18.1126C20.1468 15.3892 16.7671 13.7813 13.1905 13.8142V13.7485Z" fill="#F9BC15"/>
</svg>
