<svg width="71" height="71" viewBox="0 0 71 71" fill="none" xmlns="http://www.w3.org/2000/svg">
<path d="M35.5 27.0466C33.8282 27.0472 32.1941 27.5435 30.8044 28.4728C29.4146 29.402 28.3316 30.7225 27.6923 32.2672C27.053 33.8119 26.886 35.5115 27.2126 37.1511C27.5391 38.7907 28.3444 40.2967 29.5268 41.4786C30.7092 42.6605 32.2154 43.4653 33.8552 43.7912C35.4949 44.1172 37.1944 43.9496 38.7389 43.3097C40.2834 42.6697 41.6034 41.5862 42.5322 40.1962C43.4609 38.8061 43.9566 37.1718 43.9566 35.5C43.9549 33.258 43.0633 31.1083 41.4777 29.5233C39.892 27.9382 37.742 27.0474 35.5 27.0466V27.0466ZM55.2643 20.5488C54.834 19.4582 54.1841 18.4676 53.3551 17.6386C52.526 16.8096 51.5355 16.1597 50.4449 15.7294C47.1167 14.4155 39.1926 14.7103 35.5 14.7103C31.8074 14.7103 23.8912 14.4044 20.5536 15.7294C19.4629 16.1597 18.4724 16.8096 17.6434 17.6386C16.8143 18.4676 16.1645 19.4582 15.7341 20.5488C14.4219 23.8769 14.7151 31.809 14.7151 35.4984C14.7151 39.1879 14.4219 47.1104 15.7404 50.4496C16.1708 51.5402 16.8206 52.5308 17.6497 53.3598C18.4787 54.1889 19.4693 54.8387 20.5599 55.2691C23.888 56.5829 31.8121 56.2881 35.5063 56.2881C39.2006 56.2881 47.1136 56.594 50.4512 55.2691C51.5418 54.8387 52.5324 54.1889 53.3614 53.3598C54.1904 52.5308 54.8403 51.5402 55.2706 50.4496C56.594 47.1215 56.2897 39.1895 56.2897 35.5C56.2897 31.8105 56.594 23.8896 55.2706 20.5504L55.2643 20.5488ZM35.5 48.4955C32.9297 48.4955 30.4172 47.7334 28.2801 46.3054C26.143 44.8774 24.4773 42.8478 23.4937 40.4732C22.5101 38.0986 22.2527 35.4856 22.7542 32.9647C23.2556 30.4438 24.4933 28.1282 26.3108 26.3108C28.1282 24.4933 30.4438 23.2556 32.9647 22.7542C35.4856 22.2527 38.0986 22.5101 40.4732 23.4937C42.8478 24.4773 44.8774 26.143 46.3054 28.2801C47.7334 30.4172 48.4955 32.9297 48.4955 35.5C48.4976 37.2072 48.1629 38.898 47.5106 40.4756C46.8582 42.0533 45.901 43.4867 44.6939 44.6939C43.4867 45.901 42.0533 46.8582 40.4756 47.5106C38.898 48.1629 37.2072 48.4976 35.5 48.4955V48.4955ZM49.0312 24.9926C48.4312 24.9929 47.8446 24.8153 47.3455 24.4822C46.8465 24.1491 46.4575 23.6754 46.2276 23.1212C45.9978 22.567 45.9375 21.957 46.0544 21.3685C46.1712 20.78 46.46 20.2393 46.8842 19.8149C47.3083 19.3906 47.8488 19.1015 48.4373 18.9843C49.0257 18.8672 49.6357 18.9271 50.1901 19.1567C50.7444 19.3862 51.2183 19.775 51.5516 20.2739C51.885 20.7728 52.063 21.3593 52.063 21.9593C52.0646 22.3577 51.9876 22.7526 51.8364 23.1212C51.6851 23.4898 51.4625 23.8249 51.1814 24.1073C50.9004 24.3898 50.5663 24.6139 50.1984 24.7669C49.8305 24.9199 49.436 24.9988 49.0375 24.999L49.0312 24.9926ZM63.3929 0H7.60714C5.5896 0 3.6547 0.801465 2.22808 2.22808C0.801465 3.6547 0 5.5896 0 7.60714L0 63.3929C0 65.4104 0.801465 67.3453 2.22808 68.7719C3.6547 70.1985 5.5896 71 7.60714 71H63.3929C65.4104 71 67.3453 70.1985 68.7719 68.7719C70.1985 67.3453 71 65.4104 71 63.3929V7.60714C71 5.5896 70.1985 3.6547 68.7719 2.22808C67.3453 0.801465 65.4104 0 63.3929 0V0ZM60.6796 45.9598C60.4752 50.0217 59.5481 53.6209 56.5829 56.5781C53.6177 59.5354 50.0217 60.4815 45.9646 60.6749C41.7791 60.911 29.2304 60.911 25.0449 60.6749C20.983 60.4704 17.3966 59.5417 14.4266 56.5781C11.4567 53.6145 10.5232 50.0138 10.3299 45.9598C10.0937 41.7727 10.0937 29.2225 10.3299 25.0402C10.5343 20.9783 11.4503 17.3792 14.4266 14.4219C17.4029 11.4646 20.9989 10.5296 25.0449 10.3362C29.2304 10.1001 41.7791 10.1001 45.9646 10.3362C50.0265 10.5406 53.624 11.4694 56.5829 14.433C59.5417 17.3966 60.4863 20.9973 60.6796 25.0592C60.9158 29.2304 60.9158 41.7696 60.6796 45.9598Z" fill="black"/>
</svg>
