<svg width="64" height="64" viewBox="0 0 64 64" fill="none" xmlns="http://www.w3.org/2000/svg">
<g clip-path="url(#clip0_75_9)">
<path d="M12.5361 0.0159912C5.64224 0.0159912 0 5.6581 0 12.5521V51.4539C0 58.3478 5.64211 63.988 12.5361 63.988H51.438C58.3319 63.988 63.972 58.3479 63.972 51.4539V12.5521C63.972 5.65823 58.3319 0.0159912 51.438 0.0159912H12.5361V0.0159912ZM15.6892 10.5727C18.9946 10.5727 21.0307 12.7426 21.0935 15.5951C21.0935 18.3845 18.9945 20.6155 15.6252 20.6155H15.5632C12.3206 20.6155 10.2248 18.3846 10.2248 15.5951C10.2248 12.7427 12.3841 10.5727 15.6891 10.5727H15.6892ZM44.1743 23.9045C50.5313 23.9045 55.2968 28.0595 55.2968 36.9884V53.6571H45.6358V38.106C45.6358 34.1981 44.2376 31.532 40.7414 31.532C38.0723 31.532 36.4814 33.329 35.7829 35.065C35.5277 35.686 35.465 36.5534 35.465 37.4222V53.6571H25.804C25.804 53.6571 25.9308 27.3139 25.804 24.5862H35.467V28.703C36.7508 26.7222 39.0473 23.9044 44.1743 23.9044V23.9045ZM10.7947 24.5883H20.4557V53.6573H10.7947V24.5883V24.5883Z" fill="black"/>
</g>
<defs>
<clipPath id="clip0_75_9">
<rect width="64" height="64" fill="white"/>
</clipPath>
</defs>
</svg>
