<svg width="42" height="42" viewBox="0 0 42 42" fill="none" xmlns="http://www.w3.org/2000/svg">
<g clip-path="url(#clip0_1_20)">
<path d="M35.7822 35.791H29.5627V26.0452C29.5627 23.7213 29.5155 20.7305 26.3218 20.7305C23.079 20.7305 22.5837 23.2593 22.5837 25.8737V35.791H16.3643V15.75H22.3388V18.4818H22.4193C23.254 16.9067 25.284 15.2443 28.3167 15.2443C34.6185 15.2443 35.784 19.3918 35.784 24.7905V35.791H35.7822ZM9.33975 13.0077C7.33775 13.0077 5.7295 11.3872 5.7295 9.394C5.7295 7.4025 7.3395 5.78375 9.33975 5.78375C11.3348 5.78375 12.9517 7.4025 12.9517 9.394C12.9517 11.3872 11.333 13.0077 9.33975 13.0077ZM12.4582 35.791H6.22125V15.75H12.4582V35.791ZM38.8937 0H3.09925C1.386 0 0 1.3545 0 3.02575V38.9743C0 40.6472 1.386 42 3.09925 42H38.8885C40.6 42 42 40.6472 42 38.9743V3.02575C42 1.3545 40.6 0 38.8885 0H38.8937Z" fill="white"/>
</g>
<defs>
<clipPath id="clip0_1_20">
<rect width="42" height="42" fill="white"/>
</clipPath>
</defs>
</svg>
