<svg width="42" height="42" viewBox="0 0 42 42" fill="none" xmlns="http://www.w3.org/2000/svg">
<g clip-path="url(#clip0_13_226)">
<path fill-rule="evenodd" clip-rule="evenodd" d="M0.358154 38.2238V8.33033C0.358502 7.49558 0.690169 6.6951 1.2803 6.10472C1.87044 5.51434 2.67078 5.18234 3.50553 5.18164H33.3977L0.358154 38.2238Z" fill="#1EA361"/>
<path fill-rule="evenodd" clip-rule="evenodd" d="M0.358246 38.8499V38.2226L33.3991 5.18433H34.0265C34.8612 5.18467 35.6617 5.51634 36.2521 6.10648C36.8425 6.69661 37.1745 7.49695 37.1752 8.3317V8.9617L4.13431 42H3.50431C2.66956 41.9993 1.86922 41.6673 1.27908 41.0769C0.688948 40.4865 0.357281 39.686 0.356934 38.8513" fill="#FEDB43"/>
<path fill-rule="evenodd" clip-rule="evenodd" d="M4.13428 41.9999L18.7687 27.3682L33.3991 41.9999H4.13428Z" fill="#5384C4"/>
<path fill-rule="evenodd" clip-rule="evenodd" d="M33.3992 41.9998L18.7661 27.3654L22.5409 23.5894L37.1752 38.2237V38.8511C37.1749 39.6861 36.843 40.4868 36.2526 41.0772C35.6622 41.6676 34.8615 41.9994 34.0265 41.9998H33.3992Z" fill="white"/>
<path fill-rule="evenodd" clip-rule="evenodd" d="M37.1751 38.2238L22.5408 23.5895L37.1751 8.95508V38.2238Z" fill="#C2C2C1"/>
<path d="M6.92477 9.25312C8.7977 8.39605 11.1418 8.74518 12.663 10.1482L11.2088 11.592C9.68627 10.0826 6.82895 10.7979 6.11627 12.7956C5.19752 14.7617 6.73314 17.346 8.92502 17.3736C10.3596 17.5402 11.7915 16.5795 12.0947 15.1502C11.092 15.1515 10.0918 15.1423 9.0917 15.1581L9.07333 13.3035L14.1133 13.3717C14.2393 14.5963 14.1527 15.8957 13.4938 16.968C12.4609 18.8895 10.0236 19.7295 7.96033 19.2439C5.41014 18.7149 3.50177 16.0991 3.84958 13.5082C4.02677 11.6812 5.25002 10.0104 6.92477 9.25312Z" fill="#EFEFEF"/>
<path d="M30.744 0H31.941C34.9243 0.170625 37.8407 1.6275 39.648 4.02544C40.8319 5.54006 41.4934 7.41956 41.643 9.32794V10.0367C41.5735 13.7379 39.2057 16.7751 37.1543 19.6534C34.8521 22.9058 32.7259 26.4521 32.1353 30.4592C31.9778 31.1378 32.1668 32.0893 31.3556 32.3951C31.1653 32.2468 30.9422 32.1234 30.8083 31.9161C30.5681 29.6756 30.0208 27.4614 29.0522 25.4153C27.9668 23.0304 26.4574 20.874 24.9218 18.7674C23.9873 17.5035 23.1066 16.1949 22.3781 14.7984C21.2336 12.7076 20.8071 10.2375 21.2756 7.89206C21.6589 6.05456 22.6275 4.32206 23.9702 2.99644C25.7775 1.2285 28.2227 0.1575 30.744 0ZM30.5117 6.51788C29.0968 6.83288 27.909 8.085 27.7896 9.53662C27.7316 10.218 27.8789 10.9011 28.2124 11.498C28.546 12.0949 29.0506 12.5784 29.6612 12.8861C30.3293 13.2268 31.0844 13.3587 31.8284 13.2648C32.5724 13.171 33.2711 12.8557 33.8336 12.3598C34.345 11.8944 34.7022 11.2841 34.8577 10.6103C35.0132 9.93658 34.9595 9.23144 34.7038 8.589C34.0646 6.99038 32.1707 6.0795 30.5117 6.489" fill="#DC4B3E"/>
<path d="M30.5118 6.51782C32.1695 6.09389 34.066 7.00345 34.7039 8.61782C35.2289 9.89489 34.8667 11.4738 33.8337 12.3886C33.2711 12.8845 32.5725 13.1998 31.8285 13.2937C31.0844 13.3875 30.3294 13.2556 29.6613 12.9149C28.4407 12.3112 27.64 10.9291 27.7897 9.56545C27.9209 8.1007 29.0969 6.84857 30.5118 6.5467" fill="#802C27"/>
</g>
<defs>
<clipPath id="clip0_13_226">
<rect width="42" height="42" fill="white"/>
</clipPath>
</defs>
</svg>
