<svg width="44" height="44" viewBox="0 0 44 44" fill="none" xmlns="http://www.w3.org/2000/svg">
<circle cx="22" cy="22" r="21.5" fill="white" stroke="black"/>
<path d="M20.768 3.48366C20.6884 3.49089 20.4351 3.51622 20.2072 3.53431C14.9501 4.00828 10.026 6.84484 6.90718 11.2046C5.17051 13.6287 4.05976 16.3784 3.64006 19.291C3.49172 20.3077 3.47363 20.608 3.47363 21.9865C3.47363 23.3649 3.49172 23.6652 3.64006 24.6819C4.64589 31.6322 9.59178 37.4718 16.2997 39.6354C17.5009 40.0225 18.7672 40.2866 20.2072 40.4458C20.768 40.5073 23.1921 40.5073 23.7529 40.4458C26.2385 40.1709 28.3442 39.5558 30.421 38.4957C30.7394 38.3329 30.8009 38.2895 30.7575 38.2533C30.7285 38.2316 29.3718 36.4117 27.7436 34.2119L24.784 30.2139L21.0755 24.7253C19.0349 21.7079 17.3562 19.2403 17.3417 19.2403C17.3272 19.2367 17.3127 21.6753 17.3055 24.653C17.2947 29.8666 17.291 30.0765 17.2259 30.1995C17.1318 30.3768 17.0595 30.4491 16.9075 30.5287C16.7917 30.5866 16.6904 30.5975 16.1441 30.5975H15.5182L15.3517 30.4925C15.2432 30.4238 15.1636 30.3333 15.1093 30.2284L15.0334 30.0656L15.0406 22.8114L15.0514 15.5535L15.1636 15.4124C15.2215 15.3364 15.3445 15.2388 15.4313 15.1917C15.5797 15.1194 15.6376 15.1121 16.2635 15.1121C17.0016 15.1121 17.1246 15.1411 17.3164 15.3509C17.3706 15.4088 19.3787 18.4335 21.7811 22.0769C24.1835 25.7203 27.4687 30.6951 29.0823 33.1373L32.0129 37.5767L32.1613 37.479C33.4746 36.6252 34.864 35.4095 35.9639 34.1432C38.3048 31.4549 39.8135 28.177 40.32 24.6819C40.4684 23.6652 40.4865 23.3649 40.4865 21.9865C40.4865 20.608 40.4684 20.3077 40.32 19.291C39.3142 12.3407 34.3683 6.50112 27.6604 4.33752C26.4773 3.954 25.2182 3.68989 23.8072 3.53069C23.4598 3.49451 21.0683 3.45471 20.768 3.48366ZM28.3442 14.678C28.5179 14.7648 28.659 14.9312 28.7097 15.1049C28.7386 15.199 28.7458 17.2106 28.7386 21.744L28.7277 28.2493L27.5808 26.4909L26.4303 24.7326V20.0038C26.4303 16.9465 26.4447 15.2279 26.4665 15.1447C26.5243 14.9421 26.651 14.7829 26.8246 14.6888C26.973 14.6128 27.0273 14.6056 27.5953 14.6056C28.1308 14.6056 28.2248 14.6128 28.3442 14.678Z" fill="black"/>
</svg>
