<svg width="42" height="42" viewBox="0 0 42 42" fill="none" xmlns="http://www.w3.org/2000/svg">
<g clip-path="url(#clip0_7_38)">
<path d="M19.2041 0.535133C20.3517 -0.0609609 21.8465 -0.0636534 22.9931 0.535133C28.7617 3.49302 34.5321 6.44626 40.2996 9.40594C41.3844 9.96045 42.11 11.056 42.099 12.1903V29.9861C42.1071 31.1673 41.3097 32.2891 40.1653 32.831C34.4157 35.7726 28.669 38.7178 22.9204 41.6593C21.7491 42.2671 20.2243 42.2203 19.0896 41.5627C17.3658 40.6559 15.6392 39.7536 13.9153 38.8478C13.563 38.6572 13.1659 38.5055 12.9172 38.1956C13.1371 37.9266 13.5302 37.8931 13.8497 37.7757C14.5692 37.5681 15.23 37.2348 15.891 36.9114C16.0582 36.8076 16.2622 36.8474 16.4225 36.9403C17.8965 37.7072 19.3574 38.4964 20.8364 39.256C21.1519 39.4213 21.4713 39.2018 21.741 39.0654C27.3831 36.1717 33.0322 33.2889 38.6733 30.3943C38.8823 30.303 38.9979 30.1017 38.9809 29.8939C38.9849 24.0235 38.9819 18.152 38.9829 12.2816C39.0068 12.0458 38.8564 11.8291 38.6215 11.7326C32.8919 8.80446 27.1652 5.87186 21.4366 2.94299C21.3373 2.88107 21.2197 2.84785 21.0993 2.84769C20.9788 2.84753 20.8612 2.88044 20.7617 2.9421C15.033 5.87186 9.30735 8.80715 3.57869 11.7351C3.34462 11.8318 3.18753 12.0449 3.21538 12.2816C3.21637 18.152 3.21538 24.0235 3.21538 29.8948C3.20545 29.9962 3.22999 30.0979 3.28569 30.1862C3.34139 30.2746 3.42558 30.3453 3.52693 30.3889C5.05565 31.1756 6.58635 31.9567 8.11606 32.7407C8.97784 33.1616 10.0359 33.4117 10.9854 33.0892C11.8233 32.8165 12.4106 32.0406 12.3946 31.2333C12.4025 25.3971 12.3907 19.56 12.4006 13.7247C12.3796 13.4657 12.6505 13.2516 12.928 13.276C13.6626 13.2715 14.3981 13.267 15.1326 13.2778C15.4392 13.2715 15.6502 13.5505 15.6123 13.8115C15.6093 19.6846 15.6202 25.5579 15.6073 31.4311C15.6093 32.9963 14.9007 34.6995 13.3052 35.4654C11.3397 36.3893 8.91025 36.1934 6.96845 35.3074C5.28742 34.546 3.6832 33.6475 2.032 32.8318C0.884558 32.2928 0.0911858 31.1666 0.099263 29.9862V12.1903C0.0872297 11.0325 0.841699 9.91707 1.9603 9.37064C7.7089 6.42667 13.4565 3.48045 19.2041 0.535133Z" fill="#8CC84B"/>
<path d="M24.2188 12.8624C26.726 12.716 29.4101 12.7756 31.6663 13.8965C33.4131 14.7554 34.3815 16.558 34.4123 18.3191C34.3635 18.5566 34.0899 18.6877 33.84 18.6714C33.1126 18.6705 32.385 18.6803 31.6575 18.6669C31.349 18.6777 31.1696 18.4195 31.1309 18.1719C30.9219 17.3293 30.4155 16.4948 29.5415 16.0883C28.1999 15.4788 26.6443 15.5095 25.1813 15.5222C24.1133 15.5736 22.9649 15.6575 22.0601 16.2275C21.3655 16.6592 21.1545 17.5306 21.4024 18.2325C21.6361 18.7364 22.2772 18.899 22.8017 19.0489C25.8232 19.766 29.0251 19.6947 31.9889 20.6384C33.2159 21.0231 34.4163 21.7711 34.8363 22.9369C35.3857 24.4995 35.1449 26.3672 33.9198 27.6216C32.9263 28.6539 31.4793 29.2157 30.0362 29.5209C28.1163 29.9094 26.1239 29.9192 24.1742 29.7468C22.3408 29.5571 20.433 29.12 19.0177 27.9864C17.8074 27.0328 17.2163 25.547 17.275 24.113C17.289 23.8708 17.5547 23.7019 17.8104 23.7218C18.5429 23.7164 19.2755 23.7146 20.008 23.7227C20.3006 23.7037 20.5175 23.9332 20.5325 24.1834C20.6677 24.9862 21.0002 25.8288 21.7716 26.3048C23.2605 27.1764 25.1286 27.1168 26.8333 27.1411C28.2457 27.0843 29.8311 27.0671 30.9837 26.22C31.5918 25.7368 31.7719 24.9285 31.6076 24.2331C31.4296 23.646 30.7527 23.3724 30.1715 23.1935C27.1887 22.3372 23.9511 22.6479 20.9972 21.6797C19.798 21.2951 18.6384 20.568 18.1776 19.45C17.5348 17.8677 17.8293 15.9105 19.1828 14.6984C20.5025 13.4928 22.4076 13.0284 24.2188 12.8623V12.8624Z" fill="#8CC84B"/>
</g>
<defs>
<clipPath id="clip0_7_38">
<rect width="42" height="42" fill="white"/>
</clipPath>
</defs>
</svg>
