<svg width="48" height="48" viewBox="0 0 48 48" fill="none" xmlns="http://www.w3.org/2000/svg">
<path d="M24 27.711C26.0711 27.711 27.75 26.0321 27.75 23.961C27.75 21.8899 26.0711 20.211 24 20.211C21.9289 20.211 20.25 21.8899 20.25 23.961C20.25 26.0321 21.9289 27.711 24 27.711Z" fill="#00D8FF"/>
<path d="M24 32.559C19.4927 32.668 14.9967 32.0604 10.68 30.759C8.68593 30.1269 6.8261 29.1311 5.1945 27.822C4.5719 27.3748 4.05341 26.7981 3.67461 26.1317C3.29582 25.4652 3.06568 24.7247 3 23.961C3 21.4815 5.724 19.0515 10.287 17.4615C14.7191 16.0526 19.3499 15.3698 24 15.4395C28.5881 15.3754 33.1568 16.0458 37.533 17.4255C39.4534 18.0377 41.2502 18.9854 42.84 20.2245C43.452 20.6508 43.9627 21.2066 44.3359 21.8523C44.7092 22.498 44.9359 23.2179 45 23.961C45 26.538 41.955 29.1495 37.05 30.7725C32.8169 32.0315 28.4157 32.634 24 32.559ZM24 17.2335C19.5512 17.174 15.1212 17.8231 10.8765 19.1565C6.6765 20.622 4.794 22.626 4.794 23.9565C4.794 25.3485 6.8175 27.537 11.2605 29.0565C15.3901 30.2953 19.6899 30.8719 24 30.765C28.2246 30.8405 32.4359 30.2689 36.4875 29.07C41.1 27.5415 43.2 25.35 43.2 23.961C43.1243 23.4843 42.9506 23.0285 42.6898 22.6224C42.4291 22.2163 42.0869 21.8687 41.685 21.6015C40.2626 20.5022 38.6576 19.6623 36.9435 19.1205C32.757 17.8061 28.3875 17.1691 24 17.2335Z" fill="#00D8FF"/>
<path d="M15.4799 42.6645C14.7802 42.6806 14.0887 42.5108 13.4759 42.1725C11.3279 40.9335 10.5839 37.3605 11.4854 32.613C12.4794 28.0697 14.2016 23.717 16.5854 19.7235C18.8215 15.7172 21.6842 12.0944 25.0649 8.99252C26.5546 7.63458 28.2732 6.55134 30.1409 5.79302C30.8164 5.47643 31.5534 5.31232 32.2994 5.31232C33.0455 5.31232 33.7824 5.47643 34.4579 5.79302C36.6914 7.08002 37.4309 11.022 36.3884 16.0815C35.3637 20.3784 33.6862 24.4927 31.4144 28.281C29.257 32.2401 26.4845 35.8313 23.2004 38.9205C21.6566 40.3317 19.8649 41.4449 17.9159 42.204C17.1356 42.4936 16.312 42.6493 15.4799 42.6645ZM18.1394 20.6145C15.8655 24.4385 14.2149 28.6001 13.2494 32.943C12.4199 37.3155 13.2164 39.945 14.3744 40.614C15.5744 41.3085 18.4874 40.65 22.0244 37.56C25.1594 34.6005 27.8058 31.1628 29.8649 27.375C32.0413 23.7533 33.6504 19.8197 34.6364 15.711C35.6174 10.9485 34.7699 8.03252 33.5669 7.33952C33.116 7.16676 32.6342 7.08943 32.1519 7.1124C31.6696 7.13538 31.1973 7.25818 30.7649 7.47302C29.1024 8.15904 27.574 9.13297 26.2499 10.35C23.0199 13.3212 20.2854 16.7894 18.1499 20.6235L18.1394 20.6145Z" fill="#00D8FF"/>
<path d="M32.5156 42.684C30.4831 42.684 27.9016 41.454 25.2136 39.1425C21.7736 36.0124 18.8625 32.3466 16.5931 28.287C14.2392 24.3486 12.5306 20.0588 11.5321 15.5805C11.099 13.6103 11.0188 11.5788 11.2951 9.58053C11.3589 8.83924 11.5847 8.12099 11.9563 7.47642C12.328 6.83186 12.8365 6.27668 13.4461 5.85003C15.6766 4.55853 19.4611 5.88603 23.3236 9.31503C26.5345 12.3483 29.2612 15.8561 31.4086 19.716C33.761 23.5625 35.4875 27.7583 36.5236 32.1465C36.9752 34.1891 37.0449 36.2976 36.7291 38.3655C36.6539 39.1281 36.4147 39.8655 36.0279 40.527C35.6411 41.1885 35.1158 41.7585 34.4881 42.198C33.8853 42.5321 33.2045 42.6998 32.5156 42.684ZM18.1456 27.384C20.3227 31.2637 23.1035 34.7721 26.3836 37.7775C29.7571 40.68 32.4331 41.304 33.5836 40.6275C34.7836 39.93 35.6686 37.083 34.7566 32.4765C33.7574 28.2869 32.1014 24.2819 29.8501 20.61C27.8008 16.9157 25.1982 13.5568 22.1326 10.65C18.4966 7.42203 15.5476 6.70053 14.3461 7.39653C13.9716 7.70085 13.6643 8.07951 13.4435 8.50861C13.2228 8.9377 13.0934 9.40791 13.0636 9.88953C12.8251 11.6717 12.9028 13.4819 13.2931 15.237C14.2535 19.5197 15.8922 23.6215 18.1471 27.387L18.1456 27.384Z" fill="#00D8FF"/>
</svg>
