<svg width="64" height="63" viewBox="0 0 64 63" fill="none" xmlns="http://www.w3.org/2000/svg">
<path d="M57.1429 0H6.85714C3.07143 0 0 3.02344 0 6.75V56.25C0 59.9766 3.07143 63 6.85714 63H57.1429C60.9286 63 64 59.9766 64 56.25V6.75C64 3.02344 60.9286 0 57.1429 0ZM50.1571 22.3313C50.1857 22.725 50.1857 23.1328 50.1857 23.5266C50.1857 35.7188 40.7571 49.7672 23.5286 49.7672C18.2143 49.7672 13.2857 48.2484 9.14286 45.6328C9.9 45.7172 10.6286 45.7453 11.4 45.7453C15.7857 45.7453 19.8143 44.2828 23.0286 41.8078C18.9143 41.7234 15.4571 39.0656 14.2714 35.4094C15.7143 35.6203 17.0143 35.6203 18.5 35.2406C14.2143 34.3828 11 30.6703 11 26.1844V26.0719C12.2429 26.7609 13.7 27.1828 15.2286 27.2391C13.9435 26.3976 12.89 25.2561 12.1621 23.9163C11.4342 22.5766 11.0546 21.0803 11.0571 19.5609C11.0571 17.8453 11.5143 16.2703 12.3286 14.9062C16.9429 20.5031 23.8714 24.1594 31.6429 24.5531C30.3143 18.2953 35.0714 13.2188 40.7857 13.2188C43.4857 13.2188 45.9143 14.3297 47.6286 16.1297C49.7429 15.7359 51.7714 14.9625 53.5714 13.9078C52.8714 16.0453 51.4 17.8453 49.4571 18.9844C51.3429 18.7875 53.1714 18.2672 54.8571 17.55C53.5857 19.3922 51.9857 21.0234 50.1571 22.3313Z" fill="black"/>
</svg>
