<svg width="42" height="37" viewBox="0 0 42 37" fill="none" xmlns="http://www.w3.org/2000/svg">
<path d="M42 4.37741C40.4552 5.1205 38.7959 5.62285 37.0513 5.84865C38.8318 4.6929 40.1958 2.86145 40.8398 0.681729C39.1485 1.77066 37.2975 2.53727 35.3672 2.94825C33.7964 1.1332 31.5563 0 29.0781 0C24.3212 0 20.4634 4.18019 20.4634 9.33963C20.4634 10.0707 20.5394 10.7839 20.6854 11.4686C13.5246 11.0785 7.17605 7.36027 2.92665 1.71041C2.18464 3.09027 1.75993 4.69459 1.75993 6.40633C1.75993 9.6462 3.28119 12.5048 5.59273 14.1792C4.22434 14.1333 2.88598 13.7329 1.68953 13.0116V13.1296C1.68953 17.6552 4.65899 21.4287 8.60078 22.2869C7.87668 22.502 7.11677 22.6144 6.33062 22.6144C5.77478 22.6144 5.23551 22.5573 4.7087 22.4499C5.80514 26.1592 8.98713 28.8593 12.7563 28.9356C9.80754 31.4413 6.09196 32.9349 2.05642 32.9349C1.36134 32.9349 0.674388 32.89 0 32.8018C3.81356 35.4526 8.34155 37 13.2074 37C29.0546 37 37.7216 22.7684 37.7216 10.4267C37.7216 10.0215 37.7133 9.61932 37.6953 9.2186C39.3839 7.89463 40.8416 6.25532 42 4.37741Z" fill="white"/>
</svg>
