<svg width="42" height="42" viewBox="0 0 42 42" fill="none" xmlns="http://www.w3.org/2000/svg">
<g clip-path="url(#clip0_7_35)">
<path d="M0 21V0H42V42H0" fill="#007ACC"/>
<path d="M9.2085 21.0735V22.785H14.6685V38.325H18.543V22.785H24.003V21.105C24.003 20.16 24.003 19.3935 23.961 19.3725C23.961 19.341 20.6325 19.3305 16.59 19.3305L9.24 19.362V21.084L9.2085 21.0735ZM33.747 19.32C34.818 19.572 35.637 20.055 36.372 20.8215C36.7605 21.2415 37.338 21.9765 37.38 22.1655C37.38 22.2285 35.5635 23.457 34.461 24.1395C34.419 24.171 34.251 23.9925 34.083 23.7195C33.537 22.9425 32.9805 22.6065 32.109 22.5435C30.849 22.4595 30.009 23.121 30.009 24.2235C30.009 24.5595 30.072 24.7485 30.198 25.0215C30.4815 25.599 31.0065 25.9455 32.634 26.6595C35.637 27.951 36.939 28.8015 37.7265 30.0195C38.619 31.3845 38.8185 33.5265 38.22 35.133C37.548 36.8865 35.91 38.073 33.5685 38.4615C32.8335 38.5875 31.1535 38.5665 30.366 38.43C28.686 38.115 27.0795 37.275 26.0925 36.1935C25.704 35.7735 24.9585 34.65 25.0005 34.5765L25.3995 34.3245L26.9745 33.411L28.161 32.718L28.434 33.0855C28.7805 33.6315 29.5575 34.3665 30.009 34.6185C31.374 35.322 33.201 35.2275 34.104 34.4085C34.4925 34.0515 34.6605 33.6735 34.6605 33.1485C34.6605 32.6655 34.587 32.445 34.3455 32.0775C34.0095 31.6155 33.3375 31.2375 31.4475 30.3975C29.274 29.4735 28.35 28.8855 27.489 27.9825C26.9955 27.4365 26.544 26.586 26.334 25.8825C26.1765 25.2735 26.124 23.7825 26.271 23.184C26.7225 21.084 28.308 19.614 30.576 19.194C31.311 19.047 33.0435 19.11 33.768 19.299L33.747 19.32Z" fill="white"/>
</g>
<defs>
<clipPath id="clip0_7_35">
<rect width="42" height="42" fill="white"/>
</clipPath>
</defs>
</svg>
